<svg xmlns="http://www.w3.org/2000/svg" width="10" height="10" viewBox="0 0 10 10"><g><g><g><g><g><path fill="#054094" d="M6.101 3.843a2.333 2.333 0 0 0-3.3 0L.683 5.963A2.333 2.333 0 0 0 3.98 9.266l1.75-1.75a.167.167 0 0 0-.119-.285h-.066a2.804 2.804 0 0 1-1.067-.206.167.167 0 0 0-.181.036L3.038 8.32a1 1 0 0 1-1.414-1.415L3.752 4.78a1 1 0 0 1 1.413 0 .683.683 0 0 0 .936 0 .667.667 0 0 0 .194-.423.667.667 0 0 0-.194-.513z"/></g></g></g><g><g><g><path fill="#054094" d="M9.316.628a2.333 2.333 0 0 0-3.3 0L4.268 2.375a.167.167 0 0 0-.035.183.167.167 0 0 0 .157.102h.061a2.8 2.8 0 0 1 1.065.208.167.167 0 0 0 .182-.037l1.255-1.253a1 1 0 0 1 1.414 1.415L6.804 4.554l-.013.015-.547.543a1 1 0 0 1-1.413 0 .683.683 0 0 0-.936 0 .666.666 0 0 0 0 .94c.193.194.418.352.666.467l.105.045c.035.015.072.026.107.04.035.013.072.025.107.035l.098.026c.067.017.133.03.202.042.082.012.165.02.248.023h.127l.1-.011c.036-.002.075-.01.118-.01h.057l.115-.017.053-.01.096-.02h.019c.41-.103.783-.315 1.081-.613l2.122-2.121a2.333 2.333 0 0 0 0-3.3z"/></g></g></g></g></g></svg>